<?xml version="1.0" encoding="utf-8"?>
<!-- Generator: Adobe Illustrator 18.0.0, SVG Export Plug-In . SVG Version: 6.00 Build 0)  -->
<!DOCTYPE svg PUBLIC "-//W3C//DTD SVG 1.1//EN" "http://www.w3.org/Graphics/SVG/1.1/DTD/svg11.dtd">
<svg version="1.1" id="Слой_2" xmlns="http://www.w3.org/2000/svg" xmlns:xlink="http://www.w3.org/1999/xlink" x="0px" y="0px"
	 viewBox="530 -5 530 1205" enable-background="new 530 -5 530 1205" xml:space="preserve">
<path fill="#FF4500"    d="M878.6,21.6c9.8,8.9,16.7,17.7,14.8,37.4
	c-2,19.7-11.8,36.4-11.8,36.4s15-1.2-3.4,24.6c-9.5,13.3-15.2,10.8-15.2,10.8s1,6.9-9.8,21.6c-10.8,14.8-16.7,14.8-16.7,14.8
	l-3,11.8c0,0,5.9,3,18.7,10.8c12.8,7.8,32.5,19.7,48.1,32.5s35.5,45.2,39.4,61c3.9,15.7,3.9,76.7,6.9,88.5s3.9,41.3,13.4,60
	s23.9,52.1,25.9,63.9c1.2,7.4,3.2,24.9,4.6,36.9c26,9.6,46.2,31.2,53.9,58.1V33.5C1044.2,17.2,1031,4,1014.7,4H853.3
	C864.9,9.1,871.6,15.4,878.6,21.6z"/>
<polygon fill="#FF4500"    points="834.2,1071.5 850.4,1071.5 842.3,1007.3 "/>
<path fill="#FF4500"    d="M758.7,1019.8c-1-17.4-14.4-18.6-22.8-17.6v36.9
	C745.3,1039.4,759.7,1037.1,758.7,1019.8z"/>
<path fill="#FF4500"    d="M923.8,1143.9c1-25.6,5.9-63.9,5.9-63.9
	s-7.9-7.9-10.8-13.8c-3-5.9,5.9-8.9,5.9-14.8s-26.6-55.1-32.5-63.9c-5.9-8.9,3-19.7,3-19.7l-13.8-32.5c0,0-5.9-5.9-21.6-14.8
	c-15.7-8.9-70.8-61-109.2-94.4s-97.4-142.6-97.4-142.6l-25.6-2c0,0-2-7.9-6.9-23.6c-4.9-15.7-28.5-62-39.3-87.5s-3-49.2,3.9-79.7
	c6.9-30.5,22.6-31.5,22.6-31.5l-2-14.8c0,0-19.7,1-34.4-1c-14.7-2-9.8-3.9-11.8-15.7c-2-11.8-6.9-18.7-4.9-29.5s19.7-56.1,27.5-71.8
	s26.6-64.9,49.2-108.2c22.6-43.3,43.3-45.2,87.5-50.2c44.2-5,45.2-9.8,49.2-20.7c3.9-10.8,4.9-34.4,4.9-34.4s-6.5-1.2-6.9-8.9
	c-0.4-7.6-1.9-8.9-2.9-24.6s13.7-4.9,13.7-4.9s1.1-12.8,0.1-17.7s3.7-32.9,14-41.6c4.4-3.7,10.7-8,17.6-11.5H577.3
	c-16.3,0-29.5,13.2-29.5,29.5v1131c0,16.3,13.2,29.5,29.5,29.5h355.8C922.9,1180.4,923,1164.8,923.8,1143.9z M690.2,1128.6h-24.7
	h-6.2l-28.1-76.9v76.9h-31V980H623h8.1l28.1,72.7V980h31V1128.6z M780.1,1118.3c-5.9,4.8-11.4,10.3-11.4,10.3h-32.8h-31V980h28h3
	H762c0,0,12.9,2.6,17,8.1c4.1,5.5,8.1,17,8.1,17v26.9c0,0-3.3,6.3-7.7,9.6s-8.1,7.7-8.1,7.7s6.3,3,10,6.6c3.7,3.7,8.5,10.7,8.5,10.7
	v36.1C789.7,1102.8,786,1113.5,780.1,1118.3z M857.6,1128.6l-4.3-33.9h-22.1l-4.3,33.9h-38.7L819.6,980h43.9l31.4,148.6H857.6z"/>
<path fill="#FF4500"    d="M735.9,1062.8v40.3c9.7,1.2,26.1,0.5,26.1-17.9
	C762.1,1066.1,745.2,1063,735.9,1062.8z"/>
<path fill="#FF4500"    d="M959.9,702.6c-48.4,0-87.7-39.3-87.7-87.7
	c0-40.4,27.4-74.4,64.6-84.6c-3-9.5-6.7-20.2-10-26.7c-6.9-13.8-27.5-54.1-33.4-79.7s-21.2-88.5-21.2-88.5s-30,18.7-35.9,24.6
	c-5.9,5.9-18.7,44.3-22.6,55.1s-6.9,29.5-3.9,27.5s11.8,5.9,17.2,19.7s31,112.1,31,112.1h-7.9c0,0,6.9,21.6,13.8,54.1
	s11.8,94.4,18.7,113.1c6.9,18.7,27.2,45,35.4,69.8c4.3,12.9,8.9,29.5,11.8,53.1c3,23.6,10.8,61,10.8,61s22.6,27.5,24.6,39.3
	s-9.8,50.2-9.8,66.9s12.8,41.3,14.8,47.2s-6.9,11.8-6.9,11.8s0,0,5.9,10.8s13.8,62,7.9,71.8c-2.5,4.2-6,13.1-10.5,20.7h48.3
	c16.3,0,29.5-13.2,29.5-29.5V639C1033.7,675.7,1000,702.6,959.9,702.6z"/>
</svg>
